<svg width="619" height="354" viewBox="0 0 619 354" fill="none" xmlns="http://www.w3.org/2000/svg">
<mask id="path-1-outside-1_49_570" maskUnits="userSpaceOnUse" x="80.6763" y="318.924" width="362" height="35" fill="black">
<rect fill="white" x="80.6763" y="318.924" width="362" height="35"/>
<path d="M95.0531 352.144C87.9391 352.144 82.6763 346.349 82.6763 336.554C82.6763 326.719 87.9936 320.924 95.0531 320.924C100.987 320.924 105.597 324.801 106.45 331.453H101.568C100.969 327.862 98.356 325.801 95.1257 325.801C90.6976 325.801 87.5399 329.657 87.5399 336.554C87.5399 343.533 90.7158 347.267 95.1076 347.267C98.3379 347.267 100.951 345.206 101.568 341.615H106.468C105.724 347.43 101.441 352.144 95.0531 352.144Z"/>
<path d="M114.277 351.736V321.332H124.386C130.611 321.332 133.913 325.27 133.913 331.065C133.913 335.187 132.244 338.227 129.05 339.656L134.912 351.736H129.485L124.168 340.574H119.123V351.736H114.277ZM119.123 336.064H123.678C127.326 336.064 128.959 334.289 128.959 331.065C128.959 327.821 127.326 325.903 123.642 325.903H119.123V336.064Z"/>
<path d="M153.446 352.144C146.351 352.144 141.015 346.349 141.015 336.554C141.015 326.719 146.351 320.924 153.446 320.924C160.524 320.924 165.841 326.719 165.841 336.554C165.841 346.369 160.524 352.144 153.446 352.144ZM153.446 347.267C157.838 347.267 160.96 343.492 160.96 336.554C160.96 329.576 157.838 325.801 153.446 325.801C149.018 325.801 145.879 329.596 145.879 336.554C145.879 343.472 149.018 347.267 153.446 347.267Z"/>
<path d="M183.269 352.205C176.972 352.205 172.997 348.797 172.78 342.798H177.553C177.77 346.002 180.184 347.553 183.233 347.553C186.427 347.553 188.659 345.777 188.659 343.166C188.659 340.799 186.699 339.799 183.777 338.942L180.71 338.044C176.191 336.738 173.524 334.167 173.524 329.882C173.524 324.515 177.734 320.924 183.396 320.924C189.167 320.924 193.015 324.576 193.142 329.657H188.441C188.205 327.066 186.245 325.556 183.324 325.556C180.275 325.556 178.424 327.249 178.424 329.555C178.424 332.106 180.837 333.126 183.033 333.738L185.556 334.473C189.566 335.554 193.505 337.901 193.505 343.206C193.505 348.553 189.73 352.205 183.269 352.205Z"/>
<path d="M210.787 352.205C204.49 352.205 200.515 348.797 200.298 342.798H205.071C205.288 346.002 207.702 347.553 210.751 347.553C213.945 347.553 216.177 345.777 216.177 343.166C216.177 340.799 214.217 339.799 211.295 338.942L208.228 338.044C203.709 336.738 201.042 334.167 201.042 329.882C201.042 324.515 205.252 320.924 210.914 320.924C216.685 320.924 220.532 324.576 220.66 329.657H215.959C215.723 327.066 213.763 325.556 210.842 325.556C207.793 325.556 205.942 327.249 205.942 329.555C205.942 332.106 208.355 333.126 210.551 333.738L213.074 334.473C217.084 335.554 221.022 337.901 221.022 343.206C221.022 348.553 217.248 352.205 210.787 352.205Z"/>
<path d="M240.307 325.923V321.332H261.83V325.923H253.501V351.736H248.655V325.923H240.307Z"/>
<path d="M269.404 351.736V321.332H279.512C285.737 321.332 289.04 325.27 289.04 331.065C289.04 335.187 287.37 338.227 284.176 339.656L290.038 351.736H284.612L279.295 340.574H274.249V351.736H269.404ZM274.249 336.064H278.805C282.452 336.064 284.086 334.289 284.086 331.065C284.086 327.821 282.452 325.903 278.768 325.903H274.249V336.064Z"/>
<path d="M295.18 351.736L304.617 321.332H310.769L320.423 351.736H315.106L312.801 344.206H302.693L300.479 351.736H295.18ZM303.981 339.819H311.476L310.297 335.942C309.498 333.147 308.645 329.78 307.647 325.576C306.685 329.82 305.869 333.228 305.125 335.942L303.981 339.819Z"/>
<path d="M332.225 321.332V351.736H327.38V321.332H332.225Z"/>
<path d="M341.033 351.736V321.332H346.513L355.86 338.085C356.821 339.819 358.001 342.125 359.181 345.165C358.999 342.227 358.89 339.146 358.89 337.289V321.332H363.808V351.736H358.31L349.871 336.656C348.455 334.106 347.439 331.943 345.624 327.984C345.806 331.739 345.969 334.942 345.969 336.636V351.736H341.033Z"/>
<path d="M377.461 321.332V351.736H372.616V321.332H377.461Z"/>
<path d="M386.269 351.736V321.332H391.75L401.096 338.085C402.058 339.819 403.237 342.125 404.417 345.165C404.235 342.227 404.126 339.146 404.126 337.289V321.332H409.044V351.736H403.546L395.107 336.656C393.691 334.106 392.675 331.943 390.86 327.984C391.042 331.739 391.205 334.942 391.205 336.636V351.736H386.269Z"/>
<path d="M429.521 352.144C422.062 352.144 416.999 346.186 416.999 336.575C416.999 326.78 422.298 320.924 429.376 320.924C435.328 320.924 439.92 325.066 440.755 331.045H435.8C434.929 327.8 432.715 325.801 429.43 325.801C425.057 325.801 421.863 329.637 421.863 336.534C421.863 343.41 424.984 347.267 429.539 347.267C433.604 347.267 436.199 344.492 436.29 340.125H430.047V335.84H440.99V339.493C440.99 347.308 436.199 352.144 429.521 352.144Z"/>
</mask>
<path d="M95.0531 352.144C87.9391 352.144 82.6763 346.349 82.6763 336.554C82.6763 326.719 87.9936 320.924 95.0531 320.924C100.987 320.924 105.597 324.801 106.45 331.453H101.568C100.969 327.862 98.356 325.801 95.1257 325.801C90.6976 325.801 87.5399 329.657 87.5399 336.554C87.5399 343.533 90.7158 347.267 95.1076 347.267C98.3379 347.267 100.951 345.206 101.568 341.615H106.468C105.724 347.43 101.441 352.144 95.0531 352.144Z" fill="#0B0303"/>
<path d="M114.277 351.736V321.332H124.386C130.611 321.332 133.913 325.27 133.913 331.065C133.913 335.187 132.244 338.227 129.05 339.656L134.912 351.736H129.485L124.168 340.574H119.123V351.736H114.277ZM119.123 336.064H123.678C127.326 336.064 128.959 334.289 128.959 331.065C128.959 327.821 127.326 325.903 123.642 325.903H119.123V336.064Z" fill="#0B0303"/>
<path d="M153.446 352.144C146.351 352.144 141.015 346.349 141.015 336.554C141.015 326.719 146.351 320.924 153.446 320.924C160.524 320.924 165.841 326.719 165.841 336.554C165.841 346.369 160.524 352.144 153.446 352.144ZM153.446 347.267C157.838 347.267 160.96 343.492 160.96 336.554C160.96 329.576 157.838 325.801 153.446 325.801C149.018 325.801 145.879 329.596 145.879 336.554C145.879 343.472 149.018 347.267 153.446 347.267Z" fill="#0B0303"/>
<path d="M183.269 352.205C176.972 352.205 172.997 348.797 172.78 342.798H177.553C177.77 346.002 180.184 347.553 183.233 347.553C186.427 347.553 188.659 345.777 188.659 343.166C188.659 340.799 186.699 339.799 183.777 338.942L180.71 338.044C176.191 336.738 173.524 334.167 173.524 329.882C173.524 324.515 177.734 320.924 183.396 320.924C189.167 320.924 193.015 324.576 193.142 329.657H188.441C188.205 327.066 186.245 325.556 183.324 325.556C180.275 325.556 178.424 327.249 178.424 329.555C178.424 332.106 180.837 333.126 183.033 333.738L185.556 334.473C189.566 335.554 193.505 337.901 193.505 343.206C193.505 348.553 189.73 352.205 183.269 352.205Z" fill="#0B0303"/>
<path d="M210.787 352.205C204.49 352.205 200.515 348.797 200.298 342.798H205.071C205.288 346.002 207.702 347.553 210.751 347.553C213.945 347.553 216.177 345.777 216.177 343.166C216.177 340.799 214.217 339.799 211.295 338.942L208.228 338.044C203.709 336.738 201.042 334.167 201.042 329.882C201.042 324.515 205.252 320.924 210.914 320.924C216.685 320.924 220.532 324.576 220.66 329.657H215.959C215.723 327.066 213.763 325.556 210.842 325.556C207.793 325.556 205.942 327.249 205.942 329.555C205.942 332.106 208.355 333.126 210.551 333.738L213.074 334.473C217.084 335.554 221.022 337.901 221.022 343.206C221.022 348.553 217.248 352.205 210.787 352.205Z" fill="#0B0303"/>
<path d="M240.307 325.923V321.332H261.83V325.923H253.501V351.736H248.655V325.923H240.307Z" fill="#0B0303"/>
<path d="M269.404 351.736V321.332H279.512C285.737 321.332 289.04 325.27 289.04 331.065C289.04 335.187 287.37 338.227 284.176 339.656L290.038 351.736H284.612L279.295 340.574H274.249V351.736H269.404ZM274.249 336.064H278.805C282.452 336.064 284.086 334.289 284.086 331.065C284.086 327.821 282.452 325.903 278.768 325.903H274.249V336.064Z" fill="#0B0303"/>
<path d="M295.18 351.736L304.617 321.332H310.769L320.423 351.736H315.106L312.801 344.206H302.693L300.479 351.736H295.18ZM303.981 339.819H311.476L310.297 335.942C309.498 333.147 308.645 329.78 307.647 325.576C306.685 329.82 305.869 333.228 305.125 335.942L303.981 339.819Z" fill="#0B0303"/>
<path d="M332.225 321.332V351.736H327.38V321.332H332.225Z" fill="#0B0303"/>
<path d="M341.033 351.736V321.332H346.513L355.86 338.085C356.821 339.819 358.001 342.125 359.181 345.165C358.999 342.227 358.89 339.146 358.89 337.289V321.332H363.808V351.736H358.31L349.871 336.656C348.455 334.106 347.439 331.943 345.624 327.984C345.806 331.739 345.969 334.942 345.969 336.636V351.736H341.033Z" fill="#0B0303"/>
<path d="M377.461 321.332V351.736H372.616V321.332H377.461Z" fill="#0B0303"/>
<path d="M386.269 351.736V321.332H391.75L401.096 338.085C402.058 339.819 403.237 342.125 404.417 345.165C404.235 342.227 404.126 339.146 404.126 337.289V321.332H409.044V351.736H403.546L395.107 336.656C393.691 334.106 392.675 331.943 390.86 327.984C391.042 331.739 391.205 334.942 391.205 336.636V351.736H386.269Z" fill="#0B0303"/>
<path d="M429.521 352.144C422.062 352.144 416.999 346.186 416.999 336.575C416.999 326.78 422.298 320.924 429.376 320.924C435.328 320.924 439.92 325.066 440.755 331.045H435.8C434.929 327.8 432.715 325.801 429.43 325.801C425.057 325.801 421.863 329.637 421.863 336.534C421.863 343.41 424.984 347.267 429.539 347.267C433.604 347.267 436.199 344.492 436.29 340.125H430.047V335.84H440.99V339.493C440.99 347.308 436.199 352.144 429.521 352.144Z" fill="#0B0303"/>
<path d="M95.0531 352.144C87.9391 352.144 82.6763 346.349 82.6763 336.554C82.6763 326.719 87.9936 320.924 95.0531 320.924C100.987 320.924 105.597 324.801 106.45 331.453H101.568C100.969 327.862 98.356 325.801 95.1257 325.801C90.6976 325.801 87.5399 329.657 87.5399 336.554C87.5399 343.533 90.7158 347.267 95.1076 347.267C98.3379 347.267 100.951 345.206 101.568 341.615H106.468C105.724 347.43 101.441 352.144 95.0531 352.144Z" stroke="#0B0303" stroke-width="2.22977" mask="url(#path-1-outside-1_49_570)"/>
<path d="M114.277 351.736V321.332H124.386C130.611 321.332 133.913 325.27 133.913 331.065C133.913 335.187 132.244 338.227 129.05 339.656L134.912 351.736H129.485L124.168 340.574H119.123V351.736H114.277ZM119.123 336.064H123.678C127.326 336.064 128.959 334.289 128.959 331.065C128.959 327.821 127.326 325.903 123.642 325.903H119.123V336.064Z" stroke="#0B0303" stroke-width="2.22977" mask="url(#path-1-outside-1_49_570)"/>
<path d="M153.446 352.144C146.351 352.144 141.015 346.349 141.015 336.554C141.015 326.719 146.351 320.924 153.446 320.924C160.524 320.924 165.841 326.719 165.841 336.554C165.841 346.369 160.524 352.144 153.446 352.144ZM153.446 347.267C157.838 347.267 160.96 343.492 160.96 336.554C160.96 329.576 157.838 325.801 153.446 325.801C149.018 325.801 145.879 329.596 145.879 336.554C145.879 343.472 149.018 347.267 153.446 347.267Z" stroke="#0B0303" stroke-width="2.22977" mask="url(#path-1-outside-1_49_570)"/>
<path d="M183.269 352.205C176.972 352.205 172.997 348.797 172.78 342.798H177.553C177.77 346.002 180.184 347.553 183.233 347.553C186.427 347.553 188.659 345.777 188.659 343.166C188.659 340.799 186.699 339.799 183.777 338.942L180.71 338.044C176.191 336.738 173.524 334.167 173.524 329.882C173.524 324.515 177.734 320.924 183.396 320.924C189.167 320.924 193.015 324.576 193.142 329.657H188.441C188.205 327.066 186.245 325.556 183.324 325.556C180.275 325.556 178.424 327.249 178.424 329.555C178.424 332.106 180.837 333.126 183.033 333.738L185.556 334.473C189.566 335.554 193.505 337.901 193.505 343.206C193.505 348.553 189.73 352.205 183.269 352.205Z" stroke="#0B0303" stroke-width="2.22977" mask="url(#path-1-outside-1_49_570)"/>
<path d="M210.787 352.205C204.49 352.205 200.515 348.797 200.298 342.798H205.071C205.288 346.002 207.702 347.553 210.751 347.553C213.945 347.553 216.177 345.777 216.177 343.166C216.177 340.799 214.217 339.799 211.295 338.942L208.228 338.044C203.709 336.738 201.042 334.167 201.042 329.882C201.042 324.515 205.252 320.924 210.914 320.924C216.685 320.924 220.532 324.576 220.66 329.657H215.959C215.723 327.066 213.763 325.556 210.842 325.556C207.793 325.556 205.942 327.249 205.942 329.555C205.942 332.106 208.355 333.126 210.551 333.738L213.074 334.473C217.084 335.554 221.022 337.901 221.022 343.206C221.022 348.553 217.248 352.205 210.787 352.205Z" stroke="#0B0303" stroke-width="2.22977" mask="url(#path-1-outside-1_49_570)"/>
<path d="M240.307 325.923V321.332H261.83V325.923H253.501V351.736H248.655V325.923H240.307Z" stroke="#0B0303" stroke-width="2.22977" mask="url(#path-1-outside-1_49_570)"/>
<path d="M269.404 351.736V321.332H279.512C285.737 321.332 289.04 325.27 289.04 331.065C289.04 335.187 287.37 338.227 284.176 339.656L290.038 351.736H284.612L279.295 340.574H274.249V351.736H269.404ZM274.249 336.064H278.805C282.452 336.064 284.086 334.289 284.086 331.065C284.086 327.821 282.452 325.903 278.768 325.903H274.249V336.064Z" stroke="#0B0303" stroke-width="2.22977" mask="url(#path-1-outside-1_49_570)"/>
<path d="M295.18 351.736L304.617 321.332H310.769L320.423 351.736H315.106L312.801 344.206H302.693L300.479 351.736H295.18ZM303.981 339.819H311.476L310.297 335.942C309.498 333.147 308.645 329.78 307.647 325.576C306.685 329.82 305.869 333.228 305.125 335.942L303.981 339.819Z" stroke="#0B0303" stroke-width="2.22977" mask="url(#path-1-outside-1_49_570)"/>
<path d="M332.225 321.332V351.736H327.38V321.332H332.225Z" stroke="#0B0303" stroke-width="2.22977" mask="url(#path-1-outside-1_49_570)"/>
<path d="M341.033 351.736V321.332H346.513L355.86 338.085C356.821 339.819 358.001 342.125 359.181 345.165C358.999 342.227 358.89 339.146 358.89 337.289V321.332H363.808V351.736H358.31L349.871 336.656C348.455 334.106 347.439 331.943 345.624 327.984C345.806 331.739 345.969 334.942 345.969 336.636V351.736H341.033Z" stroke="#0B0303" stroke-width="2.22977" mask="url(#path-1-outside-1_49_570)"/>
<path d="M377.461 321.332V351.736H372.616V321.332H377.461Z" stroke="#0B0303" stroke-width="2.22977" mask="url(#path-1-outside-1_49_570)"/>
<path d="M386.269 351.736V321.332H391.75L401.096 338.085C402.058 339.819 403.237 342.125 404.417 345.165C404.235 342.227 404.126 339.146 404.126 337.289V321.332H409.044V351.736H403.546L395.107 336.656C393.691 334.106 392.675 331.943 390.86 327.984C391.042 331.739 391.205 334.942 391.205 336.636V351.736H386.269Z" stroke="#0B0303" stroke-width="2.22977" mask="url(#path-1-outside-1_49_570)"/>
<path d="M429.521 352.144C422.062 352.144 416.999 346.186 416.999 336.575C416.999 326.78 422.298 320.924 429.376 320.924C435.328 320.924 439.92 325.066 440.755 331.045H435.8C434.929 327.8 432.715 325.801 429.43 325.801C425.057 325.801 421.863 329.637 421.863 336.534C421.863 343.41 424.984 347.267 429.539 347.267C433.604 347.267 436.199 344.492 436.29 340.125H430.047V335.84H440.99V339.493C440.99 347.308 436.199 352.144 429.521 352.144Z" stroke="#0B0303" stroke-width="2.22977" mask="url(#path-1-outside-1_49_570)"/>
<path d="M468.002 40.6802C469.398 44.5799 470.86 48.7998 472.324 53.0308C473.952 57.7377 475.585 62.4576 477.128 66.731L478.364 70.1519L480.591 67.2759C485.988 60.3056 491.14 52.611 497.096 46.5278C500.687 43.2965 503.706 40.6802 508.514 40.6802H551.651L539.589 67.8931C536.704 67.73 533.734 67.5106 530.871 68.0083C527.384 68.6143 524.055 70.2484 520.594 73.8921L489.681 104.805L488.826 105.662L489.187 106.817C491.008 112.64 492.781 118.551 494.505 124.546L494.521 124.598L494.539 124.65C499.953 140.219 505.765 157.201 510.771 173.181H470.853C467.226 162.333 463.586 151.415 459.935 140.425L458.906 137.328L456.613 139.651C447.959 148.423 439.375 158.076 431.013 167.027C426.57 171.459 420.095 173.181 412.537 173.181H375.083L386.821 146.614C391.756 146.625 395.392 146.687 398.087 146.518C401.045 146.333 403.307 145.857 405.206 144.433L405.257 144.394L405.307 144.352C416.149 135.059 426.396 125.168 436.047 114.683L436.056 114.674L446.72 102.944L447.52 102.064L447.128 100.941C440.49 81.8873 434.491 60.2471 428.408 40.6802H468.002Z" fill="#070000" stroke="#E7E7E7" stroke-width="4"/>
<path d="M260.588 38.6802C265.085 38.6802 270.567 40.1248 273.506 44.6948C276.449 49.2715 276.745 56.8335 271.219 68.8403L271.22 68.8413L257.357 99.2153L257.356 99.2173C256.07 101.987 253.692 104.088 250.864 105.803C248.198 107.42 245.098 108.71 242.074 109.9C244.696 112.199 246.201 114.954 246.933 117.506C247.703 120.192 247.625 122.685 247.058 124.205L247.053 124.216L247.048 124.227L228.919 164.249L228.918 164.251C226.37 169.74 221.49 172.467 216.786 173.823C212.083 175.178 207.506 175.177 205.49 175.177H109.322L109.543 174.677L169.974 38.8911L170.068 38.6802H260.588ZM180.13 119.078C168.877 144.127 180.13 119.078 168.876 144.127C190.58 144.127 168.877 144.127 191.384 144.127C193.06 144.127 195.171 142.891 195.805 141.299C197.413 137.259 199.373 132.94 201.031 128.774C202.638 124.734 200.628 119.482 196.208 119.078C180.131 119.078 196.207 119.078 180.13 119.078ZM194.471 88.3472C213.666 88.3471 194.471 88.3472 214.377 88.3472C215.859 88.3471 217.727 87.2543 218.288 85.8462C219.709 82.2729 221.443 78.4527 222.909 74.7681C224.33 71.1949 222.553 66.5503 218.643 66.1929C204.424 66.1928 218.643 66.1929 204.424 66.1929C194.471 88.3471 204.424 66.1928 194.471 88.3472Z" fill="#070000"/>
<path d="M260.588 38.6802L260.588 36.6802H260.588V38.6802ZM273.506 44.6948L275.189 43.6131L275.189 43.613L273.506 44.6948ZM271.219 68.8403L269.402 68.0042L268.82 69.2696L269.805 70.2545L271.219 68.8403ZM271.22 68.8413L273.04 69.6717L273.616 68.4088L272.634 67.4271L271.22 68.8413ZM257.357 99.2153L259.146 100.11L259.162 100.078L259.176 100.046L257.357 99.2153ZM257.356 99.2173L255.567 98.3229L255.554 98.3488L255.542 98.375L257.356 99.2173ZM250.864 105.803L251.901 107.513L251.901 107.513L250.864 105.803ZM242.074 109.9L241.342 108.039L238.288 109.24L240.755 111.403L242.074 109.9ZM246.933 117.506L248.856 116.955L248.856 116.955L246.933 117.506ZM247.058 124.205L248.904 124.974L248.919 124.939L248.932 124.904L247.058 124.205ZM247.053 124.216L248.874 125.044L248.887 125.015L248.899 124.986L247.053 124.216ZM247.048 124.227L245.228 123.399L245.227 123.402L247.048 124.227ZM228.919 164.249L227.098 163.423L227.055 163.518L227.022 163.616L228.919 164.249ZM228.918 164.251L230.732 165.094L230.78 164.991L230.816 164.884L228.918 164.251ZM216.786 173.823L217.339 175.745L217.339 175.745L216.786 173.823ZM109.322 175.177L107.493 174.367L106.247 177.177H109.322V175.177ZM109.543 174.677L107.716 173.864L107.715 173.867L109.543 174.677ZM169.974 38.8911L171.801 39.7043L171.802 39.7034L169.974 38.8911ZM170.068 38.6802V36.6802H168.768L168.24 37.8679L170.068 38.6802ZM180.13 119.078L180.13 117.078L178.836 117.078L178.306 118.258L180.13 119.078ZM168.876 144.127L167.052 143.308L165.785 146.127L168.876 146.127L168.876 144.127ZM191.384 144.127V146.127V144.127ZM195.805 141.299L197.663 142.039L197.663 142.039L195.805 141.299ZM201.031 128.774L202.889 129.513L202.889 129.513L201.031 128.774ZM196.208 119.078L196.39 117.086L196.299 117.078H196.208L196.208 119.078ZM194.471 88.3472L192.647 87.5276L191.38 90.3472L194.471 90.3472V88.3472ZM214.377 88.3472V90.3472H214.378L214.377 88.3472ZM218.288 85.8462L220.146 86.5858L220.146 86.5856L218.288 85.8462ZM222.909 74.7681L224.767 75.5075L224.767 75.5074L222.909 74.7681ZM218.643 66.1929L218.825 64.2012L218.734 64.1929H218.643L218.643 66.1929ZM204.424 66.1929L204.424 64.1929L203.13 64.1929L202.6 65.3733L204.424 66.1929ZM260.588 38.6802L260.588 40.6802C264.788 40.6802 269.421 42.0402 271.824 45.7766L273.506 44.6948L275.189 43.613C271.714 38.2094 265.381 36.6802 260.588 36.6802L260.588 38.6802ZM273.506 44.6948L271.824 45.7766C274.207 49.4813 274.832 56.2076 269.402 68.0042L271.219 68.8403L273.036 69.6765C278.659 57.4595 278.692 49.0617 275.189 43.6131L273.506 44.6948ZM271.219 68.8403L269.805 70.2545L269.806 70.2555L271.22 68.8413L272.634 67.4271L272.633 67.4261L271.219 68.8403ZM271.22 68.8413L269.401 68.0109L255.537 98.3849L257.357 99.2153L259.176 100.046L273.04 69.6717L271.22 68.8413ZM257.357 99.2153L255.568 98.3209L255.567 98.3229L257.356 99.2173L259.145 100.112L259.146 100.11L257.357 99.2153ZM257.356 99.2173L255.542 98.375C254.492 100.637 252.489 102.479 249.827 104.093L250.864 105.803L251.901 107.513C254.896 105.697 257.648 103.337 259.17 100.06L257.356 99.2173ZM250.864 105.803L249.827 104.093C247.321 105.613 244.364 106.85 241.342 108.039L242.074 109.9L242.806 111.761C245.833 110.57 249.074 109.227 251.901 107.513L250.864 105.803ZM242.074 109.9L240.755 111.403C243.06 113.425 244.374 115.835 245.011 118.057L246.933 117.506L248.856 116.955C248.029 114.072 246.331 110.974 243.393 108.396L242.074 109.9ZM246.933 117.506L245.011 118.057C245.699 120.459 245.561 122.495 245.184 123.506L247.058 124.205L248.932 124.904C249.689 122.875 249.707 119.925 248.856 116.955L246.933 117.506ZM247.058 124.205L245.212 123.435L245.207 123.447L247.053 124.216L248.899 124.986L248.904 124.974L247.058 124.205ZM247.053 124.216L245.232 123.389L245.228 123.399L247.048 124.227L248.869 125.055L248.874 125.044L247.053 124.216ZM247.048 124.227L245.227 123.402L227.098 163.423L228.919 164.249L230.741 165.074L248.87 125.052L247.048 124.227ZM228.919 164.249L227.022 163.616L227.021 163.619L228.918 164.251L230.816 164.884L230.817 164.881L228.919 164.249ZM228.918 164.251L227.104 163.409C224.893 168.173 220.633 170.633 216.232 171.901L216.786 173.823L217.339 175.745C222.348 174.301 227.848 171.307 230.732 165.094L228.918 164.251ZM216.786 173.823L216.232 171.901C211.824 173.171 207.496 173.177 205.49 173.177V175.177V177.177C207.516 177.177 212.342 177.184 217.339 175.745L216.786 173.823ZM205.49 175.177V173.177H109.322V175.177V177.177H205.49V175.177ZM109.322 175.177L111.15 175.988L111.372 175.488L109.543 174.677L107.715 173.867L107.493 174.367L109.322 175.177ZM109.543 174.677L111.371 175.49L171.801 39.7043L169.974 38.8911L168.147 38.0779L107.716 173.864L109.543 174.677ZM169.974 38.8911L171.802 39.7034L171.895 39.4925L170.068 38.6802L168.24 37.8679L168.146 38.0788L169.974 38.8911ZM170.068 38.6802V40.6802H260.588V38.6802V36.6802H170.068V38.6802ZM180.13 119.078L178.306 118.258C175.493 124.52 174.086 127.652 173.383 129.217C173.031 130 172.855 130.391 172.767 130.587C172.723 130.685 172.701 130.734 172.69 130.758C172.685 130.771 172.682 130.777 172.681 130.78C172.68 130.781 172.68 130.782 172.68 130.782C172.679 130.782 172.68 130.782 172.68 130.781C172.68 130.78 172.681 130.78 172.681 130.779C172.681 130.778 172.682 130.776 172.683 130.775C172.684 130.772 172.687 130.765 172.689 130.762C172.696 130.746 172.703 130.731 172.703 130.731C172.687 130.766 172.663 130.818 167.052 143.308L168.876 144.127L170.701 144.947C176.343 132.388 176.32 132.44 176.304 132.474C176.304 132.474 176.311 132.459 176.318 132.443C176.32 132.44 176.323 132.433 176.324 132.43C176.325 132.429 176.326 132.427 176.326 132.426C176.326 132.425 176.327 132.425 176.327 132.424C176.327 132.423 176.328 132.422 176.328 132.422C176.328 132.422 176.328 132.421 176.329 132.419C176.331 132.416 176.333 132.41 176.339 132.398C176.35 132.373 176.372 132.324 176.416 132.226C176.504 132.031 176.68 131.639 177.031 130.856C177.735 129.291 179.141 126.16 181.955 119.897L180.13 119.078ZM168.876 144.127L168.876 146.127C190.583 146.127 168.874 146.127 191.384 146.127V144.127V142.127C168.88 142.127 190.577 142.127 168.876 142.127L168.876 144.127ZM191.384 144.127V146.127C192.672 146.127 193.98 145.669 195.042 145.009C196.098 144.352 197.142 143.349 197.663 142.039L195.805 141.299L193.947 140.56C193.835 140.842 193.506 141.253 192.929 141.612C192.357 141.968 191.772 142.127 191.384 142.127V144.127ZM195.805 141.299L197.663 142.039C198.457 140.046 199.338 137.979 200.239 135.869C201.135 133.767 202.05 131.623 202.889 129.513L201.031 128.774L199.172 128.034C198.354 130.091 197.459 132.19 196.56 134.299C195.663 136.4 194.761 138.513 193.947 140.56L195.805 141.299ZM201.031 128.774L202.889 129.513C203.899 126.974 203.774 124.084 202.699 121.731C201.607 119.344 199.449 117.366 196.39 117.086L196.208 119.078L196.025 121.069C197.386 121.194 198.444 122.044 199.061 123.394C199.693 124.778 199.77 126.533 199.172 128.035L201.031 128.774ZM196.208 119.078L196.208 117.078C192.188 117.078 190.179 117.078 189.174 117.078C188.671 117.078 188.42 117.078 188.295 117.078C188.232 117.078 188.2 117.078 188.184 117.078C188.177 117.078 188.172 117.078 188.169 117.078C188.169 117.078 188.166 117.078 188.163 117.078C188.162 117.078 188.16 117.078 188.157 117.078C188.156 117.078 188.15 117.078 188.143 117.078C188.139 117.078 188.13 117.078 188.125 117.078C188.116 117.078 188.094 117.079 188.081 117.08C188.031 117.082 187.892 117.089 187.72 117.129C187.72 117.129 187.832 117.106 187.946 117.09C187.983 117.086 188.051 117.081 188.08 117.08C188.093 117.079 188.115 117.078 188.125 117.078C188.13 117.078 188.139 117.078 188.143 117.078C188.15 117.078 188.155 117.078 188.157 117.078C188.159 117.078 188.161 117.078 188.162 117.078C188.165 117.078 188.167 117.078 188.165 117.078C188.164 117.078 188.161 117.078 188.153 117.078C188.137 117.078 188.106 117.078 188.043 117.078C187.918 117.078 187.666 117.078 187.164 117.078C186.159 117.078 184.15 117.078 180.13 117.078L180.13 119.078L180.13 121.078C184.15 121.078 186.159 121.078 187.164 121.078C187.666 121.078 187.918 121.078 188.043 121.078C188.106 121.078 188.138 121.078 188.154 121.078C188.161 121.078 188.166 121.078 188.169 121.078C188.169 121.078 188.172 121.078 188.175 121.078C188.176 121.078 188.178 121.078 188.181 121.078C188.182 121.078 188.188 121.078 188.195 121.077C188.199 121.077 188.208 121.077 188.213 121.077C188.223 121.077 188.245 121.076 188.257 121.076C188.287 121.074 188.355 121.069 188.392 121.065C188.506 121.049 188.618 121.027 188.618 121.027C188.446 121.066 188.307 121.073 188.257 121.076C188.244 121.076 188.222 121.077 188.213 121.077C188.208 121.077 188.199 121.077 188.195 121.077C188.188 121.078 188.182 121.078 188.181 121.078C188.178 121.078 188.177 121.078 188.176 121.078C188.173 121.078 188.171 121.078 188.173 121.078C188.174 121.078 188.177 121.078 188.185 121.078C188.201 121.078 188.232 121.078 188.295 121.078C188.42 121.078 188.671 121.078 189.174 121.078C190.179 121.078 192.188 121.078 196.208 121.078L196.208 119.078ZM194.471 88.3472V90.3472C213.669 90.3471 194.468 90.3472 214.377 90.3472V88.3472V86.3472C194.474 86.3472 213.664 86.3471 194.471 86.3472V88.3472ZM214.377 88.3472L214.378 90.3472C215.568 90.3471 216.767 89.9248 217.734 89.323C218.696 88.725 219.661 87.8037 220.146 86.5858L218.288 85.8462L216.429 85.1065C216.354 85.2969 216.105 85.626 215.622 85.9264C215.145 86.2231 214.669 86.3472 214.377 86.3472L214.377 88.3472ZM218.288 85.8462L220.146 86.5856C220.846 84.8258 221.625 83.0007 222.421 81.1335C223.214 79.2751 224.023 77.3763 224.767 75.5075L222.909 74.7681L221.05 74.0286C220.328 75.8444 219.538 77.6981 218.742 79.5643C217.95 81.4217 217.151 83.2933 216.429 85.1067L218.288 85.8462ZM222.909 74.7681L224.767 75.5074C225.684 73.2019 225.571 70.5802 224.594 68.4431C223.602 66.2719 221.629 64.4575 218.825 64.2012L218.643 66.1929L218.461 68.1846C219.567 68.2856 220.438 68.9723 220.956 70.106C221.49 71.2739 221.555 72.761 221.05 74.0288L222.909 74.7681ZM218.643 66.1929L218.643 64.1929C215.088 64.1928 213.311 64.1928 212.422 64.1928C211.978 64.1928 211.756 64.1928 211.645 64.1928C211.589 64.1928 211.561 64.1928 211.547 64.1928C211.54 64.1929 211.536 64.1929 211.534 64.1929C211.533 64.1929 211.53 64.1929 211.527 64.1929C211.526 64.1929 211.524 64.1929 211.522 64.1929C211.52 64.1929 211.514 64.1929 211.507 64.193C211.503 64.1931 211.492 64.1933 211.487 64.1934C211.475 64.1937 211.448 64.1947 211.432 64.1955C211.387 64.1982 211.268 64.2106 211.194 64.2219C210.702 64.374 210.263 64.6484 210.261 64.6499C210.259 64.6514 210.696 64.3765 211.192 64.2223C211.266 64.2108 211.386 64.1983 211.431 64.1955C211.447 64.1947 211.475 64.1937 211.486 64.1934C211.492 64.1933 211.502 64.1931 211.507 64.193C211.514 64.1929 211.52 64.1929 211.521 64.1929C211.524 64.1929 211.526 64.1929 211.527 64.1929C211.529 64.1929 211.531 64.1929 211.53 64.1929C211.529 64.1929 211.526 64.1929 211.519 64.1929C211.506 64.1929 211.478 64.1929 211.422 64.1929C211.311 64.1929 211.089 64.1929 210.645 64.1929C209.756 64.1929 207.979 64.1929 204.424 64.1929L204.424 66.1929L204.424 68.1929C207.979 68.1929 209.756 68.1929 210.645 68.1929C211.089 68.1929 211.311 68.1929 211.423 68.1929C211.478 68.1929 211.506 68.1929 211.52 68.1929C211.527 68.1929 211.531 68.1929 211.534 68.1929C211.534 68.1929 211.537 68.1929 211.54 68.1928C211.541 68.1928 211.543 68.1928 211.546 68.1928C211.547 68.1928 211.553 68.1928 211.561 68.1927C211.565 68.1926 211.575 68.1924 211.581 68.1923C211.592 68.192 211.62 68.191 211.636 68.1902C211.681 68.1874 211.801 68.1749 211.875 68.1635C212.371 68.0092 212.808 67.7343 212.806 67.7358C212.804 67.7373 212.365 68.0117 211.873 68.1638C211.799 68.1751 211.68 68.1875 211.636 68.1903C211.619 68.191 211.592 68.192 211.581 68.1923C211.575 68.1924 211.565 68.1926 211.56 68.1927C211.553 68.1928 211.547 68.1928 211.546 68.1928C211.543 68.1928 211.541 68.1928 211.541 68.1928C211.538 68.1929 211.536 68.1929 211.537 68.1929C211.538 68.1929 211.541 68.1929 211.548 68.1928C211.562 68.1928 211.589 68.1928 211.645 68.1928C211.756 68.1928 211.978 68.1928 212.422 68.1928C213.311 68.1928 215.088 68.1928 218.643 68.1929L218.643 66.1929ZM204.424 66.1929L202.6 65.3733C200.112 70.9118 198.868 73.6811 198.246 75.0657C197.934 75.7581 197.779 76.1042 197.701 76.2773C197.662 76.3638 197.643 76.407 197.633 76.4286C197.628 76.4394 197.626 76.4446 197.625 76.447C197.624 76.4485 197.624 76.4482 197.625 76.4474C197.625 76.4471 197.625 76.4465 197.626 76.4456C197.626 76.445 197.627 76.4427 197.628 76.4398C197.629 76.4381 197.631 76.434 197.632 76.4317C197.634 76.4271 197.639 76.4155 197.643 76.4086C197.653 76.3879 197.684 76.3266 197.706 76.2864C198.827 75.3689 200.27 75.4467 200.267 75.4455C200.264 75.4442 198.821 75.3708 197.706 76.2866C197.684 76.3267 197.653 76.3879 197.643 76.4086C197.639 76.4155 197.634 76.4271 197.632 76.4318C197.631 76.4341 197.629 76.4382 197.628 76.4399C197.627 76.4429 197.626 76.4452 197.625 76.4459C197.625 76.4468 197.625 76.4476 197.624 76.4481C197.624 76.4496 197.623 76.4512 197.622 76.4524C197.621 76.4554 197.619 76.4611 197.614 76.4718C197.604 76.4936 197.585 76.5369 197.546 76.6234C197.468 76.7965 197.312 77.1427 197.001 77.835C196.379 79.2197 195.135 81.989 192.647 87.5276L194.471 88.3472L196.296 89.1668C198.784 83.6282 200.028 80.8589 200.65 79.4742C200.961 78.7819 201.117 78.4358 201.194 78.2627C201.233 78.1762 201.253 78.1329 201.262 78.1114C201.267 78.1005 201.27 78.0954 201.271 78.0929C201.271 78.0915 201.271 78.0918 201.271 78.0925C201.271 78.0928 201.27 78.0935 201.27 78.0944C201.27 78.095 201.269 78.0972 201.267 78.1001C201.267 78.1019 201.265 78.1059 201.264 78.1082C201.261 78.1129 201.256 78.1244 201.253 78.1314C201.243 78.1521 201.211 78.2133 201.189 78.2534C200.075 79.1691 198.631 79.0958 198.629 79.0945C198.626 79.0932 200.069 79.1711 201.189 78.2536C201.211 78.2134 201.243 78.1521 201.253 78.1314C201.256 78.1244 201.261 78.1129 201.264 78.1082C201.265 78.1059 201.267 78.1018 201.267 78.1C201.269 78.0971 201.27 78.0948 201.27 78.0941C201.271 78.0931 201.271 78.0923 201.271 78.0919C201.272 78.0904 201.272 78.0888 201.273 78.0875C201.274 78.0846 201.277 78.0789 201.282 78.0681C201.292 78.0464 201.311 78.0031 201.35 77.9166C201.428 77.7435 201.583 77.3973 201.894 76.705C202.516 75.3203 203.76 72.551 206.249 67.0125L204.424 66.1929Z" fill="#E7E7E7"/>
<mask id="path-5-inside-2_49_570" fill="white">
<path d="M394.847 38.6802C405.179 38.6568 412.063 49.2495 407.823 58.647L359.123 166.581C356.819 171.686 351.725 174.979 346.112 174.992L262.971 175.18C252.657 175.204 245.773 164.644 249.979 155.25L298.308 47.3179C300.603 42.1928 305.707 38.8825 311.334 38.8696L394.847 38.6802ZM352.298 75.0942C355.156 68.9864 350.132 64.664 342.805 66.9253C338.759 68.1741 335.137 71.1679 333.588 74.5415L305.323 136.128C302.613 142.034 307.49 146.183 314.573 143.998C318.474 142.793 321.974 139.918 323.496 136.666L352.298 75.0942Z"/>
</mask>
<path d="M394.847 38.6802C405.179 38.6568 412.063 49.2495 407.823 58.647L359.123 166.581C356.819 171.686 351.725 174.979 346.112 174.992L262.971 175.18C252.657 175.204 245.773 164.644 249.979 155.25L298.308 47.3179C300.603 42.1928 305.707 38.8825 311.334 38.8696L394.847 38.6802ZM352.298 75.0942C355.156 68.9864 350.132 64.664 342.805 66.9253C338.759 68.1741 335.137 71.1679 333.588 74.5415L305.323 136.128C302.613 142.034 307.49 146.183 314.573 143.998C318.474 142.793 321.974 139.918 323.496 136.666L352.298 75.0942Z" fill="#070000"/>
<path d="M394.847 38.6802L394.838 34.6802H394.838L394.847 38.6802ZM407.823 58.647L411.469 60.2921L411.469 60.292L407.823 58.647ZM359.123 166.581L362.769 168.226H362.769L359.123 166.581ZM346.112 174.992L346.121 178.992V178.992L346.112 174.992ZM262.971 175.18L262.98 179.18H262.98L262.971 175.18ZM249.979 155.25L246.328 153.616L246.328 153.616L249.979 155.25ZM298.308 47.3179L294.657 45.6832L294.657 45.6832L298.308 47.3179ZM311.334 38.8696L311.325 34.8696L311.325 34.8696L311.334 38.8696ZM352.298 75.0942L355.922 76.7891L355.922 76.7891L352.298 75.0942ZM342.805 66.9253L341.626 63.1032L341.626 63.1032L342.805 66.9253ZM333.588 74.5415L337.224 76.21L337.224 76.21L333.588 74.5415ZM305.323 136.128L301.687 134.46L301.687 134.46L305.323 136.128ZM314.573 143.998L315.752 147.82L315.752 147.82L314.573 143.998ZM323.496 136.666L327.119 138.361L327.119 138.36L323.496 136.666ZM394.847 38.6802L394.856 42.6802C402.296 42.6634 407.214 50.2703 404.177 57.0019L407.823 58.647L411.469 60.292C416.912 48.2287 408.062 34.6503 394.838 34.6802L394.847 38.6802ZM407.823 58.647L404.177 57.0019L355.477 164.935L359.123 166.581L362.769 168.226L411.469 60.2921L407.823 58.647ZM359.123 166.581L355.477 164.935C353.82 168.606 350.151 170.983 346.103 170.992L346.112 174.992L346.121 178.992C353.299 178.975 359.818 174.766 362.769 168.226L359.123 166.581ZM346.112 174.992L346.103 170.992L262.962 171.18L262.971 175.18L262.98 179.18L346.121 178.992L346.112 174.992ZM262.971 175.18L262.962 171.18C255.534 171.197 250.617 163.614 253.63 156.885L249.979 155.25L246.328 153.616C240.929 165.674 249.779 179.21 262.98 179.18L262.971 175.18ZM249.979 155.25L253.63 156.885L301.959 48.9526L298.308 47.3179L294.657 45.6832L246.328 153.616L249.979 155.25ZM298.308 47.3179L301.959 48.9526C303.609 45.2674 307.285 42.8789 311.344 42.8696L311.334 38.8696L311.325 34.8696C304.129 34.8861 297.597 39.1181 294.657 45.6832L298.308 47.3179ZM311.334 38.8696L311.344 42.8696L394.856 42.6802L394.847 38.6802L394.838 34.6802L311.325 34.8696L311.334 38.8696ZM352.298 75.0942L355.922 76.7891C357.924 72.5081 357.46 67.8343 353.98 64.8394C350.777 62.0829 346.099 61.7225 341.626 63.1032L342.805 66.9253L343.985 70.7474C346.838 69.8667 348.336 70.5369 348.762 70.9033C348.95 71.0649 349.054 71.2443 349.095 71.5143C349.14 71.8176 349.125 72.437 348.675 73.3994L352.298 75.0942ZM342.805 66.9253L341.626 63.1032C336.661 64.6355 332.045 68.3142 329.953 72.873L333.588 74.5415L337.224 76.21C338.228 74.0216 340.857 71.7126 343.985 70.7474L342.805 66.9253ZM333.588 74.5415L329.953 72.873L301.687 134.46L305.323 136.128L308.958 137.797L337.224 76.21L333.588 74.5415ZM305.323 136.128L301.687 134.46C299.764 138.652 300.253 143.225 303.684 146.144C306.835 148.825 311.403 149.162 315.752 147.82L314.573 143.998L313.393 140.175C310.659 141.019 309.247 140.374 308.867 140.051C308.703 139.911 308.616 139.762 308.58 139.534C308.539 139.273 308.542 138.705 308.958 137.797L305.323 136.128ZM314.573 143.998L315.752 147.82C320.568 146.333 325.051 142.78 327.119 138.361L323.496 136.666L319.872 134.971C318.897 137.055 316.38 139.254 313.393 140.175L314.573 143.998ZM323.496 136.666L327.119 138.36L355.922 76.7891L352.298 75.0942L348.675 73.3993L319.872 134.971L323.496 136.666Z" fill="#E7E7E7" mask="url(#path-5-inside-2_49_570)"/>
<path d="M268.786 190.111C279.107 190.087 286.014 200.724 281.794 210.144L246.822 288.215C244.536 293.318 239.471 296.607 233.879 296.62L176.326 296.751C166.022 296.775 159.114 286.171 163.3 276.755L198.006 198.685C200.284 193.562 205.359 190.255 210.965 190.242L268.786 190.111ZM240.725 218.519C242.931 213.768 239.013 210.409 233.327 212.176C230.197 213.149 227.401 215.47 226.209 218.085L204.249 266.281C202.156 270.874 205.961 274.099 211.458 272.39C214.476 271.452 217.176 269.223 218.347 266.701L240.725 218.519Z" fill="#C2060C"/>
<path d="M378.405 190.111C388.727 190.087 395.634 200.724 391.414 210.144L356.441 288.215C354.155 293.318 349.09 296.607 343.499 296.62L285.945 296.751C275.641 296.775 268.734 286.171 272.92 276.755L307.626 198.685C309.903 193.562 314.979 190.255 320.585 190.242L378.405 190.111ZM350.344 218.519C352.55 213.768 348.632 210.409 342.946 212.176C339.817 213.149 337.021 215.47 335.829 218.085L313.869 266.281C311.776 270.874 315.581 274.099 321.078 272.39C324.096 271.452 326.796 269.223 327.967 266.701L350.344 218.519Z" fill="#C2060C"/>
<path d="M489.125 190.117C489.168 190.112 492.585 189.79 496.917 194.815C499.861 198.229 499.857 204.299 494.842 213.679H494.843L484.506 235.882C483.44 237.774 480.24 241.323 473.131 242.892C477.96 244.165 476.524 252.302 475.043 254.808L459.814 288.931C457.501 293.219 452.708 294.981 448.439 296.04C444.171 297.099 439.865 296.751 438.035 296.751H389.156C385.876 296.396 383.243 294.57 381.363 292.053C378.692 288.478 378.423 282.569 383.438 273.189L393.175 249.46L393.176 249.458C394.343 247.294 396.501 244.232 399.068 242.892C401.487 241.629 403.294 241.298 405.621 241.113C403.243 239.317 402.588 237.876 401.924 235.882C401.226 233.784 401.296 231.836 401.811 230.649L401.815 230.64L401.82 230.631L416.139 198.655L416.14 198.652C418.452 194.364 422.88 192.233 427.15 191.174C431.414 190.117 435.565 190.117 437.397 190.117H489.125ZM433.588 252.673C430.447 252.673 426.865 255 425.587 257.869L420.893 268.413C419.615 271.283 421.126 273.61 424.267 273.61H430.274C433.415 273.61 436.997 271.283 438.275 268.413L442.969 257.869C444.247 255 442.736 252.673 439.595 252.673H433.588ZM452.784 212.15C449.642 212.15 446.06 214.477 444.783 217.346L440.088 227.89C438.811 230.76 440.321 233.086 443.462 233.086H449.469C452.61 233.086 456.192 230.759 457.47 227.89L462.164 217.346C463.442 214.477 461.931 212.15 458.79 212.15H452.784Z" fill="#C2060C"/>
<path d="M168.753 189.4C172.276 189.4 176.592 190.531 178.908 194.133C181.229 197.741 181.447 203.68 177.127 213.066L177.128 213.067L166.3 236.789L166.291 236.81L166.279 236.829C165.04 238.826 163.958 240.057 162.283 240.86C160.785 241.578 158.836 241.937 155.936 242.263C159.031 244.711 159.884 247.572 159.823 250.131C159.76 252.847 158.663 255.216 158.258 256.302L158.254 256.314L158.249 256.324L144.09 287.582L144.088 287.585C142.085 291.9 138.25 294.042 134.564 295.104C130.879 296.165 127.295 296.164 125.72 296.164H56.1643L56.386 295.664L66.6946 272.436L66.7883 272.225H110.868C110.87 272.224 110.873 272.224 110.875 272.223C110.91 272.213 110.963 272.197 111.031 272.175C111.168 272.132 111.369 272.065 111.617 271.972C112.116 271.786 112.809 271.498 113.582 271.088C115.134 270.266 116.989 268.966 118.267 267.05C121.058 262.864 121.17 259.499 120.616 257.2C120.338 256.045 119.888 255.147 119.51 254.539C119.321 254.236 119.15 254.005 119.028 253.852C118.992 253.808 118.96 253.771 118.934 253.74H96.8879L97.0803 253.253L105.967 230.859L106.057 230.634H127.472C127.488 230.634 127.513 230.633 127.546 230.632C127.613 230.63 127.714 230.624 127.842 230.615C128.1 230.594 128.473 230.554 128.923 230.473C129.825 230.311 131.035 229.987 132.27 229.342C134.722 228.06 137.308 225.495 137.76 220.295C138.079 216.623 137.584 214.863 137.074 214.033C136.823 213.625 136.567 213.439 136.396 213.354C136.309 213.311 136.239 213.292 136.196 213.282C136.174 213.278 136.159 213.275 136.152 213.275H93.1331L93.3557 212.775L103.664 189.611L103.758 189.4H168.753Z" fill="#C2060C"/>
<path d="M64.3401 333.721H24.6742C12.9674 333.721 5.05321 321.778 9.61517 310.997L135.059 14.5347C137.618 8.48549 143.549 4.55505 150.118 4.55505H594.371C605.938 4.55505 613.848 16.2365 609.554 26.9769L491.029 323.439C488.547 329.649 482.533 333.721 475.846 333.721H457.846" stroke="#0B0303" stroke-width="9.11"/>
<path d="M270.96 109.205C286.28 109.442 301.78 109.881 317.434 110.536L305.599 136.325C302.889 142.231 307.766 146.38 314.849 144.194C318.751 142.99 322.25 140.115 323.771 136.862L335.684 111.396C336.544 111.44 337.404 111.482 338.264 111.528C353.331 112.333 368.248 113.322 382.994 114.481L359.398 166.777C357.095 171.882 352.001 175.177 346.388 175.189L263.248 175.378C252.933 175.401 246.048 164.841 250.254 155.447L270.96 109.205Z" fill="#A6A6A6" fill-opacity="0.44"/>
<path d="M429.603 118.205C452.789 120.663 475.465 123.548 497.537 126.827C502.923 142.355 508.625 159.113 513.478 174.779H469.398C465.62 163.481 461.828 152.106 458.023 140.654C449.382 149.414 440.851 159.012 432.43 168.025C427.453 173.002 420.344 174.779 412.523 174.779H372L385.508 144.209C396.882 144.209 401.148 144.564 403.992 142.432C412.937 134.765 421.473 126.688 429.603 118.205Z" fill="#A6A6A6" fill-opacity="0.44"/>
<path fill-rule="evenodd" clip-rule="evenodd" d="M244.465 109.205C243.563 109.584 242.654 109.949 241.752 110.304C244.374 112.603 245.88 115.358 246.611 117.91C247.381 120.596 247.303 123.089 246.736 124.609L246.731 124.62L246.727 124.631L228.598 164.652L228.597 164.655C226.049 170.144 221.169 172.871 216.464 174.227C211.761 175.582 207.184 175.581 205.168 175.581H109L109.222 175.081L136.977 112.716C171.368 110.394 207.327 109.19 244.465 109.205ZM168.555 144.531C190.258 144.531 168.555 144.531 191.062 144.531C192.738 144.531 194.85 143.295 195.483 141.703C197.091 137.663 199.051 133.344 200.709 129.178C202.316 125.138 200.306 119.886 195.886 119.482C179.809 119.481 195.885 119.482 179.809 119.482C168.555 144.531 179.808 119.482 168.555 144.531Z" fill="#A6A6A6" fill-opacity="0.44"/>
</svg>
